<?xml version="1.0" encoding="UTF-8"?><svg id="Camada_2" xmlns="http://www.w3.org/2000/svg" viewBox="0 0 385.62 381.74"><defs><style>.cls-1{fill:#8a8d38;}.cls-2{fill:#efc97a;}.cls-3{fill:#f2a71e;}</style></defs><g id="Camada_1-2"><g><g><path class="cls-1" d="M373.32,143.54c-.29-22.33-17.06-42.42-39.07-46.04-9.23-1.51-18.83-.63-28.23-1.26-6.59-.44-13.31-.92-19.66-2.58-14.3-3.73-24.39-13.24-32.92-25.01-13.91-19.21-33-29.14-56.77-29.63-11.57-.24-23.15-.01-34.73-.02-8.88,0-17.38,1.94-25.65,5.04-27.39,10.28-47.33,37.85-48.1,67-.36,13.56-.18,27.14-.23,40.71-.05,12.2,2.77,23.68,8.88,34.28,9.36,16.22,23.23,26.63,41.14,31.88,4.51,1.32,6.31,4.36,5.19,7.96-1.07,3.42-4.56,4.88-8.89,3.36-6.23-2.19-12.37-4.62-19.64-7.35-2.36,6.52-5.49,13.15-7.12,20.13-3.4,14.59-2.07,29.32,.43,43.96,2.96,17.36,13.67,27.96,30.03,32.59,9.51,2.69,19.45,4.45,29.3,5.17,9.87,.73,19.76,1.03,29.59,.48v45.47h42.29v-55.27c7.13-3.92,12.92-9.58,16.17-18.11,2.7-7.08,4.24-14.83,4.91-22.41,1.11-12.68,1.67-25.47-2.54-37.91-.99-2.94-2.26-3.76-5.27-3.75-27.81,.12-55.62,.07-83.43,.07-1.2,0-2.41,.07-3.59-.08-3.4-.44-5.72-3-5.65-6.13,.08-3.27,2.3-5.48,5.9-5.77,1.46-.12,2.92-.08,4.39-.08,49.5,0,99,0,148.5-.02,3.72,0,7.45-.18,11.15-.5,20.97-1.8,40.01-18.75,42.65-39.55,1.53-12.06,1.1-24.41,.94-36.62Zm-210.9,122.8c3.29-.86,6.54,.88,7.24,4.99,1.19,7.01,1.75,14.13,2.33,21.23,.32,3.98,1.95,6.5,5.17,6.89,3.34,.41,6.36-1.75,6.28-5.56-.14-7.51-.91-15-1.51-22.5-.1-1.3-.72-2.55-.95-3.85-.68-3.9,1.07-7.01,4.34-7.84,3.2-.81,6.53,1.12,7.36,5.01,1.62,7.62,2.82,15.33,4.2,23-.2,.06-.4,.12-.6,.17-.3,3.03-.37,6.1-.96,9.08-1.91,9.65-10.03,15.54-19.71,14.5-9.21-.99-15.51-8.75-15.7-18.46-.12-6.18-.99-12.37-1.84-18.51-.57-4.14,.83-7.24,4.34-8.15Z"/><path class="cls-1" d="M90.96,270.14c-13.66,7.04-28.25,10.97-43.51,11.71-10.18,.5-20.42-.37-30.63-.43-1.45,0-2.9,1.14-4.35,1.75,.8,1.33,1.29,3.15,2.46,3.89,3.92,2.47,8.01,4.72,12.18,6.77,19.39,9.53,40.12,14.48,61.37,17.49,5.93,.84,11.9,1.31,18.97,2.06-10.74-13.64-12.83-28.67-13.71-44.34-1.11,.43-1.98,.68-2.77,1.09Z"/><path class="cls-1" d="M139.71,332.25c0,8.93-.35,17.69,.12,26.41,.34,6.45,5.95,11.07,12.07,11.02,6.07-.04,11.8-4.92,12.11-11.08,.37-7.42,.09-14.86,.09-22.47-8.05-1.28-15.97-2.54-24.38-3.88Z"/><path class="cls-1" d="M272.95,280.16c-.25,.07-.51,.14-.76,.21-1.17,5.39-2.34,10.78-3.51,16.17,3.68,.8,6.55-.91,6.36-4.49-.21-3.99-1.35-7.93-2.09-11.89Z"/></g><circle class="cls-2" cx="139.58" cy="259.53" r="7.94"/><ellipse class="cls-2" cx="230.11" cy="276.26" rx="35.81" ry="38.85"/><g><path d="M182.31,27.15c6.43,0,12.88-.36,19.28,.06,24.41,1.63,44.22,12.3,59.44,31.35,5.64,7.06,10.58,14.69,18.75,19.3,6.35,3.58,13.06,5.86,20.39,6.05,10.5,.27,21.04,0,31.5,.83,27.88,2.22,52.42,27.47,53.51,55.47,.55,14.04,.88,28.31-.97,42.17-3.4,25.42-25.8,46.45-51.3,49-12.52,1.25-25.23,.73-37.85,.9-8.37,.11-16.74,.02-24.99,.02,1.06,7.75,2.04,15.29,3.2,22.8,.17,1.08,1.18,2.03,1.83,3.02,6.14,9.47,10.69,19.61,12.06,30.9,1.54,12.7-8.72,22.29-21.24,19.92-2.31-.44-3.37,.21-4.95,1.77-4.79,4.71-9.76,9.3-15.07,13.39-2.18,1.68-3.21,3.06-3,5.75,.25,3.31,.25,26.65,.13,29.97-.14,3.88-2.8,6.6-6.14,6.56-3.19-.04-5.62-2.54-5.85-6.33-.17-2.77-.03-25.56-.03-29.07-4.55,1-8.47,1.97-12.43,2.71-3.9,.72-7.85,1.2-12.16,1.84,0,8.12-.39,16.23,.15,24.27,.31,4.68,3.74,7.76,8.33,9.2,4.83,1.52,8.86,.02,12.4-3.29,.48-.45,.83-1.04,1.26-1.54,3.1-3.58,6.38-4.16,9.3-1.64,2.74,2.35,2.76,5.65,.06,9.2-6.34,8.32-16.83,11.84-26.6,8.93-9.68-2.89-16.64-11.69-17.09-22.21-.3-7.16-.06-14.34-.06-21.83h-17.91c0,4.02,.12,7.95-.03,11.87-.19,5.03,.1,10.22-1.02,15.06-2.73,11.75-14.49,19.52-26.15,18-12.18-1.6-21.38-11.72-21.53-23.87-.11-8.78-.18-17.56,.02-26.34,.08-3.46-1.17-4.59-4.51-4.87-13.77-1.17-27.59-2.05-41.25-4.02-26.09-3.76-51.03-11.23-73.67-25.22-7.89-4.87-10.28-13-6.02-20.53,2.86-5.06,7.31-7.71,13.11-7.53,5.97,.19,11.93,1.03,17.91,1.12,20.39,.33,39.95-3.04,57.56-14.07,1.43-.9,2.95-2.89,3.06-4.46,.82-12.01,4.12-23.24,10.11-33.65,1.32-2.29,1.52-3.75-.72-5.71-18.17-15.88-26.93-36.23-27.36-60.12-.26-14.75-.43-29.57,.61-44.27,2.04-28.95,16.04-51.27,40.09-67.27,15.92-10.59,33.77-14.4,52.66-14.14,1.99,.03,3.99-.04,5.98-.1m-60.45,195.36c-2.36,6.52-5.49,13.15-7.12,20.13-3.4,14.6-2.07,29.32,.43,43.96,2.96,17.36,13.67,27.96,30.03,32.59,9.51,2.69,19.45,4.45,29.3,5.17,19.26,1.42,38.57,1.24,57.45-3.77,13.46-3.57,25.34-9.86,30.61-23.65,2.7-7.08,4.24-14.83,4.91-22.41,1.11-12.68,1.67-25.47-2.54-37.91-.99-2.94-2.26-3.76-5.27-3.75-27.81,.12-55.62,.07-83.43,.07-1.2,0-2.41,.07-3.59-.08-3.4-.44-5.72-3-5.65-6.13,.08-3.27,2.3-5.48,5.9-5.77,1.46-.12,2.92-.08,4.39-.08,49.5,0,99,0,148.5-.02,3.72,0,7.45-.18,11.15-.5,20.97-1.8,40.01-18.75,42.65-39.55,1.53-12.06,1.1-24.41,.94-36.62-.29-22.33-17.06-42.42-39.07-46.04-9.23-1.51-18.83-.63-28.23-1.26-6.59-.44-13.31-.92-19.66-2.58-14.3-3.73-24.39-13.24-32.92-25.01-13.91-19.21-33-29.14-56.77-29.63-11.57-.24-23.15-.01-34.73-.02-8.88,0-17.38,1.94-25.65,5.04-27.39,10.28-47.33,37.85-48.1,67-.36,13.56-.18,27.14-.23,40.71-.05,12.2,2.77,23.68,8.88,34.28,9.36,16.22,23.23,26.63,41.14,31.88,4.51,1.32,6.31,4.36,5.19,7.96-1.07,3.42-4.56,4.88-8.89,3.36-6.23-2.19-12.37-4.62-19.64-7.35Zm-20.92,47.17c-1.11,.43-1.98,.68-2.77,1.09-13.66,7.04-28.25,10.97-43.51,11.71-10.18,.5-20.42-.37-30.63-.43-1.45,0-2.9,1.14-4.35,1.75,.8,1.33,1.29,3.15,2.46,3.89,3.92,2.47,8.01,4.72,12.18,6.77,19.39,9.53,40.12,14.48,61.37,17.49,5.93,.84,11.9,1.31,18.97,2.06-10.74-13.64-12.83-28.67-13.71-44.34Zm45.98,63.2c0,8.93-.35,17.69,.12,26.41,.34,6.45,5.95,11.07,12.07,11.02,6.07-.04,11.8-4.92,12.11-11.08,.37-7.42,.09-14.86,.09-22.47-8.05-1.28-15.97-2.54-24.38-3.88Zm128.97-35.71c3.68,.8,6.55-.91,6.36-4.49-.21-3.99-1.35-7.93-2.09-11.89l-.76,.21c-1.17,5.39-2.34,10.78-3.51,16.17Z"/><path d="M196.28,287.89c-.3,3.03-.37,6.1-.96,9.08-1.91,9.65-10.03,15.54-19.71,14.5-9.21-.99-15.51-8.75-15.7-18.46-.12-6.18-.99-12.37-1.84-18.51-.57-4.14,.83-7.24,4.34-8.15,3.29-.86,6.54,.88,7.24,4.99,1.19,7.01,1.75,14.13,2.33,21.23,.32,3.98,1.95,6.5,5.17,6.89,3.34,.41,6.36-1.75,6.28-5.56-.14-7.51-.91-15-1.51-22.5-.1-1.3-.72-2.55-.95-3.85-.68-3.9,1.07-7.01,4.34-7.84,3.2-.81,6.53,1.12,7.36,5.01,1.62,7.62,2.82,15.33,4.2,23l-.6,.17Z"/></g><g><path d="M243.14,32.92C228.88,10.38,207.99-1.31,181.21,.12c-15.21,.82-30.33,3.84-45.41,6.34-8.2,1.35-15.55,5.24-22.39,9.95-14.92,10.28-23.94,24.64-28.47,41.94-1.15,4.35-3.24,6.56-7.47,8.9-9.31,5.13-18.78,10.9-26.14,18.42-21.71,22.15-9.94,62.67,19.82,69.04,1.1,.24,2.77,1.24,2.91,2.09,.07,.47,.14,.93,.21,1.39l14.22,2.62c.27-.04,.53-.06,.78-.03,22.07,3.21,40.42-12.81,45.65-32.11,4.85-17.91,1.41-34.18-10.35-48.55-1.62-1.98-1.82-3.64-1.31-6.1,2.83-13.63,10.31-23.14,23.74-27.42,3.39-1.08,7.01-1.47,10.57-1.99,9.74-1.43,19.47-2.93,29.25-4.08,16.03-1.9,30.66,.43,43.72,7.05l29.07,9.24c-2.9-3.75-13.88-19.84-16.46-23.91ZM58.54,132.67c-2.85-4.16-4.46-9.17-6.64-13.78-.3-9.23,1.45-17.3,7.21-24.26,7.1-8.56,19.33-10.44,28.7-4.48,13.83,8.79,17.96,29.47,8.58,42.94-9.47,13.61-28.27,13.55-37.85-.43Zm40.25,15.92c23.55-20.43,17.73-58.7-9.53-71.65,12.29-2.99,29.07,7.76,33.91,25.44,6.4,23.38-6.84,43.56-24.38,46.21Zm44.4-115.42c.07,.92-1.58,2.42-2.75,2.92-9.63,4.13-17.94,9.9-23.07,19.24-2.33,4.23-3.7,8.98-5.48,13.46-5.12-1.64-10.24-3.28-15.42-4.93,2.85-21.67,21.84-42.51,44.71-46,.72,5.1,1.58,10.19,2,15.31Zm36.53-4.31l-24.06,3.38-2.32-16.54,24.06-3.38,2.32,16.54Zm12.58-2.37l-2-14.23c15.64,1.7,28.02,8.68,37.59,19.91-11.63-1.86-23.31-3.72-35.59-5.68Z"/><path class="cls-3" d="M227.88,32.17c-11.63-1.86-23.31-3.72-35.59-5.68l-2-14.23c15.64,1.7,28.02,8.68,37.59,19.91Z"/><rect class="cls-3" x="154.37" y="13.94" width="24.3" height="16.7" transform="translate(-1.48 23.4) rotate(-8)"/><path class="cls-3" d="M143.19,33.17c.07,.92-1.58,2.42-2.75,2.92-9.63,4.13-17.94,9.9-23.07,19.24-2.33,4.23-3.7,8.98-5.48,13.46-5.12-1.64-10.24-3.28-15.42-4.93,2.85-21.67,21.84-42.51,44.71-46,.72,5.1,1.58,10.19,2,15.31Z"/><path class="cls-3" d="M98.79,148.6c23.55-20.43,17.73-58.7-9.53-71.65,12.29-2.99,29.07,7.76,33.91,25.44,6.4,23.38-6.84,43.56-24.38,46.21Z"/><path class="cls-2" d="M96.39,133.1c-9.47,13.61-28.27,13.55-37.85-.43-2.85-4.16-4.46-9.17-6.64-13.78-.3-9.23,1.45-17.3,7.21-24.26,7.1-8.56,19.33-10.44,28.7-4.48,13.83,8.79,17.96,29.47,8.58,42.94Z"/></g><g><path d="M224.37,68.96c8.45,.1,15.85,6.8,16.82,15.22,.45,3.94-1.42,7.06-4.66,7.73-3.56,.75-6.23-1.24-7.2-5.56-.65-2.88-1.96-5.15-5.13-5.16-3.18,0-4.5,2.26-5.15,5.14-.98,4.34-3.61,6.31-7.18,5.59-3.23-.65-5.13-3.78-4.68-7.71,.97-8.58,8.61-15.36,17.19-15.25Z"/><path d="M144,85.29c.07-8.79,8.27-16.5,17.34-16.32,8.87,.17,16.85,8.03,16.81,16.54-.02,3.43-2.19,6.18-5.29,6.45-3.6,.32-5.79-1.41-6.58-4.93-.06-.26-.11-.52-.16-.78-.55-2.9-1.98-5.11-5.19-5.03-3.18,.08-4.46,2.33-5.04,5.23-.8,3.98-3.1,5.83-6.5,5.53-3.3-.29-5.42-2.93-5.39-6.7Z"/><path d="M308.2,206.19c-6.2-.24-11.5-2.32-15.78-6.74-2.83-2.92-3.06-6.24-.64-8.83,2.32-2.48,5.46-2.54,8.54-.16,6.29,4.85,9.27,4.86,15.46,.02,3.08-2.4,6.18-2.36,8.54,.12,2.42,2.55,2.2,5.95-.58,8.83-4.28,4.43-9.57,6.5-15.55,6.76Z"/><path d="M333.14,129.47c.02,3.19-2.54,5.85-5.73,5.96-3.35,.12-6.16-2.59-6.16-5.94,0-3.19,2.57-5.9,5.74-6.03,3.27-.14,6.14,2.65,6.16,6.01Z"/><path d="M289.11,123.46c3.37,.1,5.91,2.94,5.73,6.39-.16,3.24-2.82,5.7-6.06,5.6-3.13-.09-5.83-2.82-5.84-5.93-.01-3.24,2.96-6.16,6.16-6.06Z"/></g></g></g></svg>